<mxfile host="drawio-plugin" modified="2024-06-02T10:21:56.652Z" agent="5.0 (Macintosh; Intel Mac OS X 10_15_7) AppleWebKit/537.36 (KHTML, like Gecko) Chrome/97.0.4692.45 Safari/537.36" etag="kcFje-Eh0I_FHasU7jBq" version="20.5.3" type="embed"><diagram id="IkT93PwuEm1JNoc7komQ" name="Page-1"><mxGraphModel dx="1125" dy="760" grid="1" gridSize="10" guides="1" tooltips="1" connect="1" arrows="1" fold="1" page="1" pageScale="1" pageWidth="850" pageHeight="1100" math="0" shadow="0"><root><mxCell id="0"/><mxCell id="1" parent="0"/><mxCell id="3" value="API Source" style="rounded=1;whiteSpace=wrap;html=1;" parent="1" vertex="1"><mxGeometry x="80" y="160" width="120" height="60" as="geometry"/></mxCell><mxCell id="4" value="Website source" style="rounded=1;whiteSpace=wrap;html=1;" parent="1" vertex="1"><mxGeometry x="400" y="160" width="120" height="60" as="geometry"/></mxCell><mxCell id="5" value="Database Source" style="shape=cylinder3;whiteSpace=wrap;html=1;boundedLbl=1;backgroundOutline=1;size=15;" parent="1" vertex="1"><mxGeometry x="110" y="30" width="60" height="80" as="geometry"/></mxCell><mxCell id="6" value="read" style="endArrow=classic;html=1;rounded=0;exitX=0.5;exitY=0;exitDx=0;exitDy=0;" parent="1" source="3" target="5" edge="1"><mxGeometry width="50" height="50" relative="1" as="geometry"><mxPoint x="100" y="360" as="sourcePoint"/><mxPoint x="150" y="310" as="targetPoint"/></mxGeometry></mxCell><mxCell id="8" value="OpenAI Engine" style="rounded=1;whiteSpace=wrap;html=1;" parent="1" vertex="1"><mxGeometry x="240" y="260" width="120" height="60" as="geometry"/></mxCell><mxCell id="9" value="read" style="endArrow=classic;html=1;rounded=0;exitX=0;exitY=0.5;exitDx=0;exitDy=0;" parent="1" source="8" target="3" edge="1"><mxGeometry width="50" height="50" relative="1" as="geometry"><mxPoint x="160" y="320" as="sourcePoint"/><mxPoint x="210" y="270" as="targetPoint"/><Array as="points"><mxPoint x="140" y="290"/></Array></mxGeometry></mxCell><mxCell id="10" value="read" style="endArrow=classic;html=1;rounded=0;exitX=1;exitY=0.5;exitDx=0;exitDy=0;entryX=0.5;entryY=1;entryDx=0;entryDy=0;" parent="1" source="8" target="4" edge="1"><mxGeometry width="50" height="50" relative="1" as="geometry"><mxPoint x="500" y="360" as="sourcePoint"/><mxPoint x="550" y="310" as="targetPoint"/><Array as="points"><mxPoint x="460" y="290"/></Array></mxGeometry></mxCell><mxCell id="11" value="UI" style="rounded=1;whiteSpace=wrap;html=1;" parent="1" vertex="1"><mxGeometry x="240" y="350" width="120" height="60" as="geometry"/></mxCell><mxCell id="12" value="" style="endArrow=classic;html=1;rounded=0;entryX=0.5;entryY=1;entryDx=0;entryDy=0;" parent="1" source="11" target="8" edge="1"><mxGeometry width="50" height="50" relative="1" as="geometry"><mxPoint x="400" y="420" as="sourcePoint"/><mxPoint x="450" y="370" as="targetPoint"/></mxGeometry></mxCell><mxCell id="13" value="Cache Datasource" style="shape=cylinder3;whiteSpace=wrap;html=1;boundedLbl=1;backgroundOutline=1;size=15;" parent="1" vertex="1"><mxGeometry x="270" y="120" width="60" height="80" as="geometry"/></mxCell><mxCell id="14" value="write" style="endArrow=classic;html=1;rounded=0;entryX=0.5;entryY=1;entryDx=0;entryDy=0;entryPerimeter=0;exitX=0.5;exitY=0;exitDx=0;exitDy=0;" parent="1" source="8" target="13" edge="1"><mxGeometry width="50" height="50" relative="1" as="geometry"><mxPoint x="430" y="410" as="sourcePoint"/><mxPoint x="480" y="360" as="targetPoint"/></mxGeometry></mxCell><mxCell id="15" value="&lt;h1&gt;Objective&lt;/h1&gt;&lt;p&gt;&lt;span style=&quot;background-color: initial;&quot;&gt;The objective is to develop an investment advisor chatbot designed to assist our customers by answering their questions.&lt;/span&gt;&lt;br&gt;&lt;/p&gt;&lt;p&gt;The investment advisor chatbot will utilize predefined website URLs, internal information via API calls, and customer data as sources, integrated with ChatGPT technology.&lt;/p&gt;&lt;p&gt;Customers will be able to pose questions directly to the chatbot.&lt;/p&gt;&lt;p&gt;As investment advisors, our role will be to continuously provide market insights and to train the chatbot based on these evolving insights and customer inquiries.&lt;/p&gt;" style="text;html=1;strokeColor=#d6b656;fillColor=#FFF2CC;spacing=5;spacingTop=-20;whiteSpace=wrap;overflow=hidden;rounded=0;" parent="1" vertex="1"><mxGeometry x="540" y="70" width="420" height="320" as="geometry"/></mxCell></root></mxGraphModel></diagram></mxfile>